<svg width="456.9" height="72.704" viewBox="0 0 456.9 72.704"
    xmlns="http://www.w3.org/2000/svg">
    <g id="svgGroup" stroke-linecap="round" fill-rule="evenodd" font-size="9pt" stroke="#000" stroke-width="0.25mm" fill="#000" style="stroke:#000;stroke-width:0.25mm;fill:#000">
        <path d="M 334.7 1.202 L 361.8 1.202 L 361.8 72.002 L 339.7 72.002 L 339.7 36.702 L 328.8 72.002 L 309.8 72.002 L 298.9 36.702 L 298.9 72.002 L 276.7 72.002 L 276.7 1.202 L 303.9 1.202 L 319.5 43.702 L 334.7 1.202 Z M 429.8 1.202 L 456.9 1.202 L 456.9 72.002 L 434.8 72.002 L 434.8 36.702 L 423.9 72.002 L 404.9 72.002 L 394 36.702 L 394 72.002 L 371.8 72.002 L 371.8 1.202 L 399 1.202 L 414.6 43.702 L 429.8 1.202 Z M 114.2 18.902 L 89.2 18.902 L 89.2 27.602 L 111.2 27.602 L 111.2 44.302 L 89.2 44.302 L 89.2 54.302 L 114.2 54.302 L 114.2 72.002 L 67 72.002 L 67 1.202 L 114.2 1.202 L 114.2 18.902 Z M 189.9 28.402 L 166.5 28.402 A 13.481 13.481 0 0 0 164.162 24.833 A 12.002 12.002 0 0 0 161.95 22.952 A 11.823 11.823 0 0 0 155.803 21.015 A 14.426 14.426 0 0 0 155.2 21.002 A 11.991 11.991 0 0 0 151.038 21.695 A 10.396 10.396 0 0 0 146.35 25.202 Q 143.1 29.402 143.1 36.502 A 25.227 25.227 0 0 0 143.484 41.041 Q 144.217 45.046 146.35 47.802 A 10.395 10.395 0 0 0 153.92 51.944 A 13.906 13.906 0 0 0 155.2 52.002 A 12.593 12.593 0 0 0 159.49 51.287 A 11.5 11.5 0 0 0 161.95 50.052 A 12.42 12.42 0 0 0 166.075 45.459 A 15.196 15.196 0 0 0 166.5 44.602 L 189.9 44.602 A 37.417 37.417 0 0 1 186.834 54.282 A 32.885 32.885 0 0 1 183.85 59.302 Q 179.3 65.602 172.05 69.052 A 35.437 35.437 0 0 1 161.16 72.165 A 44.629 44.629 0 0 1 155.6 72.502 A 42.43 42.43 0 0 1 146.184 71.502 A 32.873 32.873 0 0 1 137 67.952 Q 129.1 63.402 124.85 55.202 A 37.854 37.854 0 0 1 120.936 42.226 A 47.512 47.512 0 0 1 120.6 36.502 A 44.326 44.326 0 0 1 121.799 25.995 A 36.472 36.472 0 0 1 124.85 17.802 Q 129.1 9.602 137 5.052 A 33.67 33.67 0 0 1 148.575 1.04 A 44.273 44.273 0 0 1 155.6 0.502 A 42.032 42.032 0 0 1 164.825 1.476 A 34.178 34.178 0 0 1 172.05 3.952 Q 179.3 7.402 183.85 13.702 Q 188.4 20.002 189.9 28.402 Z M 60 72.002 L 35.6 72.002 L 22.3 46.602 L 22.2 46.602 L 22.2 72.002 L 0 72.002 L 0 1.202 L 33 1.202 A 40.533 40.533 0 0 1 39.811 1.745 Q 43.696 2.407 46.919 3.879 A 24.495 24.495 0 0 1 47.7 4.252 A 23.531 23.531 0 0 1 53.109 7.917 A 19.615 19.615 0 0 1 56.85 12.552 A 22.711 22.711 0 0 1 59.849 22.723 A 27.492 27.492 0 0 1 59.9 24.402 Q 59.9 31.502 55.95 37.002 A 20.475 20.475 0 0 1 48.186 43.459 A 27.026 27.026 0 0 1 44.6 44.902 L 60 72.002 Z M 232.4 72.702 Q 222.4 72.702 214.05 68.002 Q 205.7 63.302 200.8 55.002 Q 195.9 46.702 195.9 36.302 A 37.895 37.895 0 0 1 197.814 24.122 A 34.406 34.406 0 0 1 200.8 17.602 Q 205.7 9.302 214.05 4.652 Q 222.4 0.002 232.4 0.002 Q 242.4 0.002 250.7 4.652 Q 259 9.302 263.85 17.602 A 35.729 35.729 0 0 1 268.624 33.735 A 42.999 42.999 0 0 1 268.7 36.302 A 38.253 38.253 0 0 1 266.805 48.482 A 34.576 34.576 0 0 1 263.85 55.002 Q 259 63.302 250.65 68.002 Q 242.3 72.702 232.4 72.702 Z M 232.4 52.002 Q 239 52.002 242.6 47.752 A 14.467 14.467 0 0 0 245.511 42.037 Q 246.2 39.452 246.2 36.302 Q 246.2 29.002 242.6 24.752 Q 239 20.502 232.4 20.502 A 16.869 16.869 0 0 0 228.16 21.004 A 11.519 11.519 0 0 0 222.1 24.752 Q 218.5 29.002 218.5 36.302 A 23.358 23.358 0 0 0 218.945 41 Q 219.535 43.872 220.907 46.104 A 13.418 13.418 0 0 0 222.1 47.752 A 11.686 11.686 0 0 0 228.968 51.684 A 17.615 17.615 0 0 0 232.4 52.002 Z M 22.2 19.802 L 22.2 31.802 L 31 31.802 Q 33.04 31.802 34.43 31.213 A 4.824 4.824 0 0 0 35.8 30.352 Q 37.113 29.163 37.348 26.863 A 10.408 10.408 0 0 0 37.4 25.802 A 7.648 7.648 0 0 0 37.189 23.954 A 5.231 5.231 0 0 0 35.75 21.402 Q 34.293 19.989 31.706 19.824 A 11.07 11.07 0 0 0 31 19.802 L 22.2 19.802 Z" vector-effect="non-scaling-stroke"/>
    </g>
</svg>